<svg width="24" height="25" viewBox="0 0 24 25" fill="none" xmlns="http://www.w3.org/2000/svg">
<g clip-path="url(#clip0_14315_37768)">
<path d="M24 12.7451C24 6.1177 18.6274 0.745117 12 0.745117C5.37258 0.745117 0 6.1177 0 12.7451C0 18.7346 4.3882 23.6991 10.125 24.5993V16.2139H7.07812V12.7451H10.125V10.1014C10.125 7.09387 11.9166 5.43262 14.6576 5.43262C15.9701 5.43262 17.3438 5.66699 17.3438 5.66699V8.62012H15.8306C14.34 8.62012 13.875 9.5452 13.875 10.4951V12.7451H17.2031L16.6711 16.2139H13.875V24.5993C19.6118 23.6991 24 18.7346 24 12.7451Z" fill="#7B869F"/>
</g>
<defs>
<clipPath id="clip0_14315_37768">
<rect width="24" height="24" fill="white" transform="translate(0 0.745117)"/>
</clipPath>
</defs>
</svg>
