<svg width="24" height="25" viewBox="0 0 24 25" fill="none" xmlns="http://www.w3.org/2000/svg">
<g clip-path="url(#clip0_14315_37765)">
<path d="M22.2234 0.745117H1.77187C0.792187 0.745117 0 1.51855 0 2.4748V23.0107C0 23.967 0.792187 24.7451 1.77187 24.7451H22.2234C23.2031 24.7451 24 23.967 24 23.0154V2.4748C24 1.51855 23.2031 0.745117 22.2234 0.745117ZM7.12031 21.1967H3.55781V9.74043H7.12031V21.1967ZM5.33906 8.17949C4.19531 8.17949 3.27188 7.25605 3.27188 6.11699C3.27188 4.97793 4.19531 4.05449 5.33906 4.05449C6.47813 4.05449 7.40156 4.97793 7.40156 6.11699C7.40156 7.25137 6.47813 8.17949 5.33906 8.17949ZM20.4516 21.1967H16.8937V15.6279C16.8937 14.3014 16.8703 12.5904 15.0422 12.5904C13.1906 12.5904 12.9094 14.0389 12.9094 15.5342V21.1967H9.35625V9.74043H12.7687V11.3061H12.8156C13.2891 10.4061 14.4516 9.45449 16.1813 9.45449C19.7859 9.45449 20.4516 11.8264 20.4516 14.9107V21.1967Z" fill="#7B869F"/>
</g>
<defs>
<clipPath id="clip0_14315_37765">
<rect width="24" height="24" fill="white" transform="translate(0 0.745117)"/>
</clipPath>
</defs>
</svg>
