<svg width="185" height="40" viewBox="0 0 185 40" fill="none" xmlns="http://www.w3.org/2000/svg">
<path d="M21.3087 3.47313C22.3234 3.04179 23.4017 2.7624 24.4987 2.64672C25.9153 2.57516 27.3642 2.58888 28.7248 3.03591C32.9873 4.20739 36.3154 8.20806 36.6252 12.6263C29.2964 12.6401 21.9665 12.6381 14.6377 12.6273C14.9308 8.65312 17.6394 4.9985 21.3087 3.47313Z" fill="#F3BD09"/>
<path d="M5.61827 5.94819C7.68478 3.76209 10.712 2.50434 13.7206 2.61904C15.2871 2.6308 16.8537 2.59551 18.4192 2.63865C17.4821 3.40231 16.4763 4.10912 15.7204 5.06885C12.9207 8.2588 11.8031 12.8633 12.9363 16.964C13.7382 20.1147 15.7734 22.9292 18.5075 24.6889C17.932 24.8046 17.3429 24.7438 16.7606 24.7575C15.3852 24.7438 14.0088 24.7977 12.6354 24.7026C10.1836 24.4928 7.79654 23.4596 6.00648 21.7636C4.42033 20.2843 3.26453 18.3423 2.77143 16.2268C2.4744 15.1034 2.45577 13.9348 2.50577 12.781C2.69791 10.2341 3.80469 7.75492 5.61827 5.94819Z" fill="#F3BD09"/>
<path d="M20.7266 14.7198C22.0176 14.6815 23.3107 14.7129 24.6027 14.7031C25.387 14.7149 26.1752 14.6619 26.9555 14.7707C29.0034 15.0227 30.9738 15.8589 32.5796 17.1558C33.9128 18.2558 35.0157 19.6527 35.7176 21.2359C37.0224 24.0906 37.0126 27.5031 35.696 30.3529C34.9745 31.9616 33.8344 33.3664 32.4659 34.4712C30.6287 35.924 28.3162 36.77 25.9752 36.8347C24.2351 36.823 22.4941 36.8553 20.754 36.8171C20.8609 36.7073 20.9667 36.5955 21.0903 36.5044C24.2567 34.3104 26.3536 30.6411 26.6212 26.7963C26.6398 25.8179 26.6918 24.8288 26.531 23.8583C26.0477 20.6183 24.3204 17.5715 21.752 15.5315C21.4157 15.253 21.0354 15.0295 20.7266 14.7198Z" fill="#F3BD09"/>
<path d="M2.57463 26.7695C9.89857 26.7803 17.2225 26.7646 24.5474 26.7774C24.4161 28.4831 23.8387 30.1467 22.9495 31.6044C21.9624 33.1681 20.5948 34.4934 18.99 35.4159C17.0245 36.5227 14.7139 37.0158 12.469 36.7854C9.57115 36.5296 6.8145 35.0493 4.98621 32.7887C3.72944 31.2888 2.91088 29.4399 2.60208 27.5107C2.56875 27.2646 2.56679 27.0166 2.57463 26.7695Z" fill="#F3BD09"/>
<path d="M62.3633 18.8186L58.2218 19.2704C58.1047 18.8521 57.8997 18.4589 57.6069 18.0907C57.3224 17.7226 56.9376 17.4256 56.4523 17.1997C55.967 16.9738 55.373 16.8608 54.6702 16.8608C53.7248 16.8608 52.93 17.0658 52.2857 17.4758C51.6499 17.8857 51.3361 18.417 51.3445 19.0696C51.3361 19.6302 51.5411 20.0862 51.9594 20.4376C52.3861 20.7889 53.0889 21.0776 54.0678 21.3035L57.3559 22.0063C59.1798 22.3995 60.5352 23.0228 61.4221 23.8762C62.3173 24.7296 62.7691 25.8466 62.7775 27.227C62.7691 28.4402 62.4135 29.5111 61.7107 30.4398C61.0163 31.3601 60.0499 32.0797 58.8117 32.5984C57.5734 33.1171 56.1511 33.3765 54.5447 33.3765C52.1853 33.3765 50.2861 32.8829 48.8471 31.8956C47.408 30.9 46.5504 29.5153 46.2743 27.7416L50.7045 27.3149C50.9053 28.185 51.332 28.8418 51.9845 29.2852C52.6371 29.7287 53.4864 29.9504 54.5322 29.9504C55.6115 29.9504 56.4774 29.7287 57.13 29.2852C57.791 28.8418 58.1214 28.2938 58.1214 27.6412C58.1214 27.089 57.9081 26.633 57.4814 26.2733C57.0631 25.9135 56.4105 25.6374 55.5236 25.445L52.2355 24.7547C50.3865 24.3699 49.0186 23.7214 48.1317 22.8095C47.2449 21.8892 46.8056 20.7262 46.814 19.3206C46.8056 18.1326 47.1277 17.1035 47.7803 16.2333C48.4413 15.3548 49.3574 14.6771 50.5288 14.2003C51.7085 13.715 53.068 13.4724 54.6075 13.4724C56.8665 13.4724 58.6444 13.9534 59.9412 14.9156C61.2464 15.8778 62.0537 17.1788 62.3633 18.8186ZM75.796 13.7234V17.2373H64.7144V13.7234H75.796ZM67.4503 9.10499H71.9934V27.2019C71.9934 27.8127 72.0854 28.2812 72.2694 28.6075C72.4619 28.9255 72.7129 29.143 73.0224 29.2601C73.332 29.3773 73.675 29.4358 74.0515 29.4358C74.336 29.4358 74.5954 29.4149 74.8296 29.3731C75.0723 29.3312 75.2563 29.2936 75.3818 29.2601L76.1474 32.8118C75.9047 32.8954 75.5575 32.9875 75.1057 33.0878C74.6623 33.1882 74.1185 33.2468 73.4742 33.2635C72.3364 33.297 71.3115 33.1255 70.3995 32.749C69.4876 32.3641 68.7638 31.7701 68.2284 30.9669C67.7013 30.1637 67.4419 29.1597 67.4503 27.9549V9.10499ZM84.7891 33.389C83.5676 33.389 82.4674 33.1715 81.4885 32.7365C80.518 32.293 79.7482 31.6404 79.1793 30.7787C78.6187 29.9169 78.3385 28.8544 78.3385 27.591C78.3385 26.5033 78.5393 25.6039 78.9408 24.8928C79.3424 24.1816 79.8905 23.6127 80.5849 23.186C81.2793 22.7593 82.0616 22.4372 82.9317 22.2196C83.8102 21.9937 84.718 21.8306 85.655 21.7302C86.7845 21.6131 87.7007 21.5085 88.4035 21.4164C89.1063 21.316 89.6166 21.1654 89.9346 20.9646C90.2609 20.7555 90.424 20.4334 90.424 19.9983V19.923C90.424 18.9776 90.1437 18.2455 89.5832 17.7268C89.0226 17.208 88.2152 16.9487 87.161 16.9487C86.0483 16.9487 85.1656 17.1913 84.513 17.6766C83.8688 18.1618 83.4337 18.7349 83.2078 19.3959L78.9659 18.7935C79.3006 17.6222 79.8528 16.6433 80.6225 15.8568C81.3923 15.062 82.3335 14.468 83.4463 14.0748C84.559 13.6732 85.7889 13.4724 87.1359 13.4724C88.0646 13.4724 88.9891 13.5811 89.9095 13.7987C90.8298 14.0162 91.6706 14.376 92.432 14.8779C93.1933 15.3716 93.8041 16.0451 94.2643 16.8985C94.7328 17.7519 94.9671 18.8186 94.9671 20.0987V33H90.5997V30.352H90.4491C90.173 30.8874 89.784 31.3894 89.282 31.858C88.7883 32.3181 88.165 32.6904 87.412 32.9749C86.6674 33.251 85.7931 33.389 84.7891 33.389ZM85.9688 30.0508C86.8807 30.0508 87.6714 29.8709 88.3407 29.5111C89.01 29.143 89.5246 28.6577 89.8844 28.0553C90.2525 27.4529 90.4366 26.7962 90.4366 26.085V23.8135C90.2943 23.9306 90.0517 24.0394 89.7087 24.1398C89.374 24.2402 88.9975 24.328 88.5792 24.4033C88.1608 24.4786 87.7467 24.5456 87.3367 24.6041C86.9268 24.6627 86.5712 24.7129 86.27 24.7547C85.5923 24.8467 84.9857 24.9973 84.4503 25.2065C83.9148 25.4157 83.4923 25.7085 83.1827 26.085C82.8731 26.4531 82.7184 26.93 82.7184 27.5157C82.7184 28.3524 83.0237 28.984 83.6345 29.4107C84.2453 29.8374 85.0234 30.0508 85.9688 30.0508ZM99.1818 33V13.7234H103.587V16.9361H103.788C104.139 15.8234 104.741 14.9658 105.595 14.3634C106.457 13.7526 107.44 13.4473 108.544 13.4473C108.795 13.4473 109.075 13.4598 109.385 13.4849C109.703 13.5016 109.966 13.5309 110.176 13.5728V17.7519C109.983 17.6849 109.678 17.6264 109.259 17.5762C108.849 17.5176 108.452 17.4883 108.067 17.4883C107.239 17.4883 106.494 17.6682 105.833 18.028C105.181 18.3794 104.666 18.8688 104.29 19.4963C103.913 20.1238 103.725 20.8475 103.725 21.6674V33H99.1818ZM119.2 33.3388C117.686 33.3388 116.33 32.9498 115.134 32.1717C113.937 31.3936 112.992 30.2641 112.298 28.7832C111.603 27.3023 111.256 25.5035 111.256 23.3868C111.256 21.2449 111.607 19.4377 112.31 17.9652C113.021 16.4843 113.979 15.3674 115.184 14.6144C116.389 13.853 117.732 13.4724 119.213 13.4724C120.342 13.4724 121.271 13.6648 121.999 14.0497C122.727 14.4262 123.304 14.8821 123.731 15.4176C124.157 15.9447 124.488 16.4425 124.722 16.911H124.91V7.29781H129.466V33H124.998V29.9629H124.722C124.488 30.4315 124.149 30.9293 123.705 31.4564C123.262 31.9751 122.676 32.4185 121.948 32.7867C121.221 33.1548 120.304 33.3388 119.2 33.3388ZM120.468 29.6115C121.43 29.6115 122.25 29.3522 122.927 28.8334C123.605 28.3063 124.12 27.5743 124.471 26.6372C124.822 25.7001 124.998 24.6083 124.998 23.3617C124.998 22.1151 124.822 21.0316 124.471 20.1113C124.128 19.1909 123.618 18.4756 122.94 17.9652C122.271 17.4549 121.446 17.1997 120.468 17.1997C119.455 17.1997 118.61 17.4632 117.933 17.9903C117.255 18.5174 116.744 19.2453 116.401 20.174C116.058 21.1027 115.887 22.1653 115.887 23.3617C115.887 24.5665 116.058 25.6416 116.401 26.587C116.753 27.5241 117.267 28.2645 117.945 28.8083C118.631 29.3438 119.472 29.6115 120.468 29.6115ZM142.488 33.3765C140.555 33.3765 138.886 32.9749 137.48 32.1717C136.083 31.3601 135.008 30.2139 134.255 28.733C133.502 27.2438 133.125 25.491 133.125 23.4746C133.125 21.4917 133.502 19.7515 134.255 18.2539C135.016 16.7479 136.079 15.5766 137.442 14.7399C138.806 13.8949 140.408 13.4724 142.249 13.4724C143.437 13.4724 144.558 13.6648 145.612 14.0497C146.675 14.4262 147.612 15.0118 148.424 15.8066C149.244 16.6015 149.888 17.6138 150.356 18.8437C150.825 20.0652 151.059 21.521 151.059 23.2111V24.6041H135.259V21.5419H146.704C146.696 20.6718 146.508 19.8979 146.14 19.2202C145.771 18.5342 145.257 17.9945 144.596 17.6013C143.943 17.208 143.182 17.0114 142.312 17.0114C141.383 17.0114 140.567 17.2373 139.865 17.6891C139.162 18.1326 138.614 18.7182 138.221 19.4461C137.836 20.1656 137.639 20.9563 137.631 21.818V24.4912C137.631 25.6123 137.836 26.5745 138.246 27.3776C138.656 28.1725 139.229 28.7832 139.965 29.2099C140.701 29.6283 141.563 29.8374 142.55 29.8374C143.211 29.8374 143.809 29.7454 144.345 29.5613C144.88 29.3689 145.345 29.0886 145.738 28.7205C146.131 28.3524 146.428 27.8964 146.629 27.3525L150.871 27.8294C150.603 28.9506 150.093 29.9295 149.34 30.7661C148.595 31.5944 147.641 32.2386 146.478 32.6988C145.315 33.1506 143.985 33.3765 142.488 33.3765ZM154.549 33V13.7234H158.891V16.9989H159.117C159.519 15.8945 160.184 15.0327 161.113 14.4136C162.041 13.7861 163.15 13.4724 164.438 13.4724C165.744 13.4724 166.844 13.7903 167.739 14.4262C168.643 15.0536 169.278 15.9112 169.647 16.9989H169.847C170.274 15.928 170.994 15.0746 172.006 14.4387C173.027 13.7945 174.236 13.4724 175.633 13.4724C177.407 13.4724 178.854 14.0329 179.975 15.154C181.096 16.2752 181.657 17.9108 181.657 20.0611V33H177.101V20.7638C177.101 19.5674 176.783 18.6931 176.147 18.1409C175.512 17.5804 174.734 17.3001 173.813 17.3001C172.717 17.3001 171.86 17.6431 171.24 18.3292C170.63 19.0069 170.324 19.8895 170.324 20.9772V33H165.869V20.5756C165.869 19.58 165.568 18.7851 164.966 18.1911C164.371 17.5971 163.593 17.3001 162.631 17.3001C161.979 17.3001 161.385 17.4674 160.849 17.8021C160.314 18.1284 159.887 18.5927 159.569 19.1951C159.251 19.7891 159.092 20.4836 159.092 21.2784V33H154.549Z" fill="#0B2253"/>
</svg>
