<svg width="186" height="40" viewBox="0 0 186 40" fill="none" xmlns="http://www.w3.org/2000/svg">
<path d="M21.9118 3.34544C22.9264 2.9141 24.0048 2.63471 25.1017 2.51904C26.5183 2.44747 27.9672 2.4612 29.3279 2.90822C33.5903 4.0797 36.9185 8.08037 37.2282 12.4987C29.8994 12.5124 22.5696 12.5104 15.2407 12.4996C15.5338 8.52543 18.2424 4.87082 21.9118 3.34544Z" fill="#F3BD09"/>
<path d="M6.2213 5.82051C8.28781 3.6344 11.315 2.37666 14.3236 2.49135C15.8902 2.50312 17.4567 2.46783 19.0223 2.51096C18.0851 3.27463 17.0793 3.98143 16.3235 4.94116C13.5237 8.13111 12.4061 12.7357 13.5394 16.8363C14.3413 19.9871 16.3764 22.8015 19.1105 24.5612C18.5351 24.6769 17.9459 24.6161 17.3636 24.6298C15.9882 24.6161 14.6118 24.67 13.2384 24.5749C10.7866 24.3652 8.39956 23.3319 6.60951 21.636C5.02335 20.1567 3.86756 18.2146 3.37446 16.0991C3.07743 14.9757 3.0588 13.8071 3.1088 12.6533C3.30094 10.1065 4.40771 7.62723 6.2213 5.82051Z" fill="#F3BD09"/>
<path d="M21.3296 14.5922C22.6207 14.554 23.9137 14.5853 25.2058 14.5755C25.99 14.5873 26.7782 14.5344 27.5585 14.6432C29.6064 14.8951 31.5768 15.7313 33.1826 17.0283C34.5158 18.1282 35.6187 19.5251 36.3206 21.1084C37.6254 23.963 37.6156 27.3755 36.299 30.2253C35.5775 31.834 34.4374 33.2388 33.0689 34.3436C31.2318 35.7964 28.9192 36.6425 26.5782 36.7072C24.8381 36.6954 23.0971 36.7277 21.357 36.6895C21.4639 36.5797 21.5698 36.468 21.6933 36.3768C24.8597 34.1828 26.9566 30.5135 27.2242 26.6687C27.2429 25.6904 27.2948 24.7012 27.134 23.7307C26.6507 20.4908 24.9234 17.4439 22.355 15.4039C22.0188 15.1255 21.6384 14.902 21.3296 14.5922Z" fill="#F3BD09"/>
<path d="M3.17766 26.6421C10.5016 26.6529 17.8255 26.6372 25.1505 26.6499C25.0191 28.3557 24.4417 30.0193 23.5526 31.477C22.5654 33.0406 21.1978 34.366 19.5931 35.2885C17.6275 36.3953 15.3169 36.8884 13.072 36.658C10.1742 36.4021 7.41753 34.9218 5.58923 32.6612C4.33247 31.1613 3.51391 29.3125 3.20511 27.3832C3.17178 27.1371 3.16981 26.8891 3.17766 26.6421Z" fill="#F3BD09"/>
<path d="M62.9663 18.6912L58.8249 19.143C58.7077 18.7246 58.5028 18.3314 58.2099 17.9633C57.9255 17.5952 57.5406 17.2981 57.0553 17.0722C56.5701 16.8463 55.976 16.7334 55.2733 16.7334C54.3278 16.7334 53.533 16.9384 52.8888 17.3483C52.2529 17.7583 51.9392 18.2896 51.9475 18.9422C51.9392 19.5027 52.1441 19.9587 52.5625 20.3101C52.9892 20.6615 53.692 20.9502 54.6709 21.1761L57.9589 21.8788C59.7829 22.2721 61.1382 22.8954 62.0251 23.7488C62.9203 24.6022 63.3721 25.7191 63.3805 27.0996C63.3721 28.3128 63.0165 29.3837 62.3137 30.3124C61.6193 31.2327 60.653 31.9522 59.4147 32.471C58.1765 32.9897 56.7541 33.2491 55.1478 33.2491C52.7884 33.2491 50.8892 32.7554 49.4501 31.7682C48.011 30.7725 47.1535 29.3879 46.8774 27.6142L51.3075 27.1875C51.5083 28.0576 51.935 28.7144 52.5876 29.1578C53.2402 29.6012 54.0894 29.8229 55.1352 29.8229C56.2145 29.8229 57.0804 29.6012 57.733 29.1578C58.394 28.7144 58.7245 28.1663 58.7245 27.5138C58.7245 26.9616 58.5111 26.5056 58.0844 26.1458C57.6661 25.786 57.0135 25.51 56.1266 25.3175L52.8386 24.6273C50.9896 24.2424 49.6216 23.594 48.7348 22.682C47.8479 21.7617 47.4087 20.5988 47.417 19.1932C47.4087 18.0051 47.7308 16.976 48.3834 16.1059C49.0443 15.2274 49.9605 14.5497 51.1318 14.0728C52.3115 13.5875 53.6711 13.3449 55.2105 13.3449C57.4695 13.3449 59.2474 13.826 60.5442 14.7882C61.8494 15.7503 62.6568 17.0513 62.9663 18.6912ZM76.399 13.5959V17.1099H65.3174V13.5959H76.399ZM68.0533 8.97755H72.5964V27.0745C72.5964 27.6853 72.6884 28.1538 72.8725 28.4801C73.0649 28.798 73.3159 29.0156 73.6255 29.1327C73.935 29.2498 74.2781 29.3084 74.6546 29.3084C74.939 29.3084 75.1984 29.2875 75.4327 29.2456C75.6753 29.2038 75.8594 29.1662 75.9849 29.1327L76.7504 32.6843C76.5078 32.768 76.1606 32.86 75.7088 32.9604C75.2653 33.0608 74.7215 33.1194 74.0773 33.1361C72.9394 33.1696 71.9145 32.9981 71.0025 32.6216C70.0906 32.2367 69.3669 31.6427 68.8314 30.8395C68.3043 30.0363 68.0449 29.0323 68.0533 27.8275V8.97755ZM85.3921 33.2616C84.1706 33.2616 83.0704 33.0441 82.0915 32.609C81.121 32.1656 80.3513 31.513 79.7823 30.6512C79.2218 29.7895 78.9415 28.7269 78.9415 27.4636C78.9415 26.3759 79.1423 25.4765 79.5439 24.7653C79.9455 24.0542 80.4935 23.4852 81.1879 23.0585C81.8823 22.6318 82.6646 22.3097 83.5347 22.0922C84.4132 21.8663 85.321 21.7031 86.2581 21.6028C87.3876 21.4856 88.3037 21.381 89.0065 21.289C89.7093 21.1886 90.2197 21.038 90.5376 20.8372C90.8639 20.628 91.027 20.3059 91.027 19.8709V19.7956C91.027 18.8501 90.7468 18.1181 90.1862 17.5993C89.6256 17.0806 88.8182 16.8212 87.7641 16.8212C86.6513 16.8212 85.7686 17.0639 85.116 17.5491C84.4718 18.0344 84.0367 18.6075 83.8108 19.2685L79.569 18.6661C79.9036 17.4948 80.4558 16.5159 81.2256 15.7294C81.9953 14.9346 82.9365 14.3405 84.0493 13.9473C85.162 13.5457 86.3919 13.3449 87.739 13.3449C88.6677 13.3449 89.5922 13.4537 90.5125 13.6712C91.4328 13.8887 92.2737 14.2485 93.035 14.7505C93.7964 15.2441 94.4071 15.9176 94.8673 16.771C95.3358 17.6244 95.5701 18.6912 95.5701 19.9713V32.8726H91.2027V30.2245H91.0521C90.776 30.76 90.387 31.262 89.885 31.7305C89.3914 32.1907 88.7681 32.563 88.0151 32.8475C87.2704 33.1236 86.3961 33.2616 85.3921 33.2616ZM86.5718 29.9233C87.4838 29.9233 88.2744 29.7435 88.9437 29.3837C89.6131 29.0156 90.1276 28.5303 90.4874 27.9279C90.8555 27.3255 91.0396 26.6687 91.0396 25.9576V23.686C90.8973 23.8032 90.6547 23.9119 90.3117 24.0123C89.977 24.1127 89.6005 24.2006 89.1822 24.2759C88.7639 24.3512 88.3497 24.4181 87.9398 24.4767C87.5298 24.5352 87.1742 24.5854 86.873 24.6273C86.1953 24.7193 85.5887 24.8699 85.0533 25.0791C84.5178 25.2882 84.0953 25.5811 83.7857 25.9576C83.4762 26.3257 83.3214 26.8026 83.3214 27.3883C83.3214 28.2249 83.6268 28.8566 84.2375 29.2833C84.8483 29.71 85.6264 29.9233 86.5718 29.9233ZM99.7849 32.8726V13.5959H104.19V16.8087H104.391C104.742 15.6959 105.344 14.8384 106.198 14.236C107.06 13.6252 108.043 13.3198 109.147 13.3198C109.398 13.3198 109.678 13.3324 109.988 13.3575C110.306 13.3742 110.569 13.4035 110.779 13.4453V17.6244C110.586 17.5575 110.281 17.4989 109.862 17.4487C109.452 17.3902 109.055 17.3609 108.67 17.3609C107.842 17.3609 107.097 17.5408 106.436 17.9005C105.784 18.2519 105.269 18.7414 104.893 19.3689C104.516 19.9964 104.328 20.7201 104.328 21.54V32.8726H99.7849ZM119.803 33.2114C118.289 33.2114 116.933 32.8224 115.737 32.0443C114.54 31.2662 113.595 30.1367 112.901 28.6558C112.206 27.1749 111.859 25.3761 111.859 23.2593C111.859 21.1175 112.21 19.3103 112.913 17.8378C113.624 16.3569 114.582 15.24 115.787 14.487C116.992 13.7256 118.335 13.3449 119.816 13.3449C120.945 13.3449 121.874 13.5373 122.602 13.9222C123.33 14.2987 123.907 14.7547 124.334 15.2902C124.76 15.8172 125.091 16.3151 125.325 16.7836H125.513V7.17037H130.069V32.8726H125.601V29.8355H125.325C125.091 30.304 124.752 30.8018 124.308 31.3289C123.865 31.8477 123.279 32.2911 122.551 32.6592C121.824 33.0273 120.907 33.2114 119.803 33.2114ZM121.071 29.4841C122.033 29.4841 122.853 29.2247 123.53 28.706C124.208 28.1789 124.723 27.4468 125.074 26.5098C125.425 25.5727 125.601 24.4809 125.601 23.2342C125.601 21.9876 125.425 20.9041 125.074 19.9838C124.731 19.0635 124.221 18.3481 123.543 17.8378C122.874 17.3274 122.05 17.0722 121.071 17.0722C120.058 17.0722 119.213 17.3358 118.536 17.8629C117.858 18.39 117.347 19.1179 117.004 20.0466C116.661 20.9753 116.49 22.0378 116.49 23.2342C116.49 24.439 116.661 25.5141 117.004 26.4596C117.356 27.3966 117.87 28.1371 118.548 28.6809C119.234 29.2164 120.075 29.4841 121.071 29.4841ZM143.091 33.2491C141.158 33.2491 139.489 32.8475 138.083 32.0443C136.686 31.2327 135.611 30.0865 134.858 28.6056C134.105 27.1163 133.728 25.3635 133.728 23.3472C133.728 21.3643 134.105 19.624 134.858 18.1264C135.619 16.6204 136.682 15.4491 138.045 14.6125C139.409 13.7674 141.011 13.3449 142.852 13.3449C144.04 13.3449 145.161 13.5373 146.215 13.9222C147.278 14.2987 148.215 14.8844 149.027 15.6792C149.847 16.474 150.491 17.4864 150.959 18.7163C151.428 19.9378 151.662 21.3936 151.662 23.0836V24.4767H135.862V21.4145H147.307C147.299 20.5444 147.111 19.7705 146.743 19.0928C146.374 18.4067 145.86 17.8671 145.199 17.4738C144.546 17.0806 143.785 16.884 142.915 16.884C141.986 16.884 141.17 17.1099 140.468 17.5617C139.765 18.0051 139.217 18.5908 138.824 19.3187C138.439 20.0382 138.242 20.8288 138.234 21.6906V24.3637C138.234 25.4849 138.439 26.447 138.849 27.2502C139.259 28.045 139.832 28.6558 140.568 29.0825C141.304 29.5008 142.166 29.71 143.153 29.71C143.814 29.71 144.412 29.618 144.948 29.4339C145.483 29.2415 145.948 28.9612 146.341 28.593C146.734 28.2249 147.031 27.7689 147.232 27.2251L151.474 27.702C151.206 28.8231 150.696 29.802 149.943 30.6387C149.198 31.467 148.244 32.1112 147.081 32.5714C145.918 33.0232 144.588 33.2491 143.091 33.2491ZM155.152 32.8726V13.5959H159.494V16.8714H159.72C160.122 15.767 160.787 14.9053 161.716 14.2862C162.644 13.6587 163.753 13.3449 165.041 13.3449C166.347 13.3449 167.447 13.6628 168.342 14.2987C169.246 14.9262 169.882 15.7838 170.25 16.8714H170.45C170.877 15.8005 171.597 14.9471 172.609 14.3113C173.63 13.667 174.839 13.3449 176.236 13.3449C178.01 13.3449 179.457 13.9055 180.578 15.0266C181.699 16.1477 182.26 17.7834 182.26 19.9336V32.8726H177.704V20.6364C177.704 19.44 177.386 18.5657 176.75 18.0135C176.115 17.4529 175.337 17.1726 174.416 17.1726C173.32 17.1726 172.463 17.5157 171.843 18.2017C171.233 18.8794 170.927 19.7621 170.927 20.8498V32.8726H166.472V20.4482C166.472 19.4525 166.171 18.6577 165.569 18.0637C164.975 17.4697 164.196 17.1726 163.234 17.1726C162.582 17.1726 161.988 17.34 161.452 17.6746C160.917 18.0009 160.49 18.4653 160.172 19.0677C159.854 19.6617 159.695 20.3561 159.695 21.151V32.8726H155.152Z" fill="white"/>
</svg>
