<svg width="116" height="99" viewBox="0 0 116 99" fill="none" xmlns="http://www.w3.org/2000/svg">
<path fill-rule="evenodd" clip-rule="evenodd" d="M85.94 8.03578C89.4901 9.26616 92.8341 6.06459 95.8934 3.88341C100.627 0.50839 106.802 -0.767744 112.486 0.454454C113.429 0.657202 114.417 0.961522 115.038 1.69944C115.605 2.37417 115.767 3.2946 115.858 4.1717C116.418 9.54088 115.075 15.0891 112.123 19.6084C110.686 21.807 108.887 23.7645 107.602 26.0552C106.318 28.3458 105.584 31.1443 106.499 33.6059C111.94 48.241 109.676 65.5029 100.645 78.2396C91.6133 90.9763 76.0729 98.8246 60.462 98.5328C52.4783 98.3835 44.6565 96.2526 37.1344 93.5728C33.8525 92.4035 30.2446 91.1208 26.9868 92.3555C21.0422 94.6084 14.7837 96.031 8.4494 96.5691C6.87753 96.7026 5.23519 96.7713 3.78483 96.1507C1.61379 95.2218 0.303205 92.8676 0.0539814 90.5194C-0.195242 88.1712 0.453891 85.8206 1.27386 83.6062C3.74733 76.9262 11.4266 66.491 16.0748 64.0872C15.6989 55.9754 15.74 47.7685 17.4938 39.8397C19.2476 31.9108 22.8267 24.2171 28.6978 18.607C31.1228 16.2897 33.898 14.3611 36.8048 12.6875C51.507 4.2226 69.9105 2.48032 85.94 8.03578ZM63.5506 7.37717C52.3079 7.64033 41.364 12.1565 32.5754 19.1727C29.995 21.2327 27.5698 23.5214 25.633 26.1955C24.1062 28.3035 22.8988 30.6296 21.89 33.0289C15.9041 47.2662 17.2707 64.3719 25.441 77.4783C25.6192 77.764 25.8234 78.0669 26.1413 78.1779C26.5335 78.3149 26.9558 78.1153 27.3224 77.9199C52.984 64.2446 75.8251 45.3046 94.0147 22.6182C94.4479 22.078 94.9037 21.4504 94.8102 20.7643C94.7401 20.2495 94.3727 19.8316 94.0141 19.4556C86.2526 11.3177 74.7932 7.11402 63.5506 7.37717ZM79.2685 92.3687C91.4569 86.6465 100.714 75.3389 104.673 62.4692C105.57 59.555 106.214 56.5424 106.278 53.494C106.331 50.9305 105.973 48.3782 105.616 45.8391C105.099 42.1578 104.582 38.4766 104.065 34.7954C103.927 33.8194 102.987 32.5312 102.3 33.238C83.2295 52.8639 62.4052 70.7851 40.1566 86.7181C39.4162 87.2483 38.6013 87.9039 38.5614 88.8137C38.5152 89.8667 39.52 90.6305 40.433 91.157C52.0974 97.8834 67.08 98.0909 79.2685 92.3687ZM4.08621 90.8703C4.97294 92.2925 6.895 92.5838 8.57034 92.6301C17.3597 92.8733 26.0557 90.2977 33.9195 86.3642C41.7834 82.4307 48.9008 77.1692 55.8176 71.7405C65.043 64.4999 73.993 56.9114 82.7152 49.0719C93.5174 39.3631 104.132 29.0649 111.224 16.39C112.596 13.9383 113.862 11.2499 113.647 8.4486C113.433 5.64734 111.198 2.8192 108.391 2.9287C102.434 3.16107 96.576 5.45168 92.0414 9.32213C91.1396 10.0919 91.777 11.7304 92.887 12.1471C93.9971 12.5637 95.2341 12.1497 96.3188 11.6709C97.4035 11.1921 98.533 10.6322 99.7114 10.7632C101.512 10.9634 102.79 12.8064 102.897 14.6146C103.005 16.4227 102.205 18.1605 101.263 19.7075C99.5194 22.5706 97.2423 25.0661 94.9413 27.5039C74.488 49.173 50.8936 67.8726 25.1258 82.8361C22.8052 84.1836 20.4575 85.5057 17.9601 86.4875C16.6501 87.0024 15.1482 87.4159 13.8697 86.827C11.7735 85.8615 11.6055 82.9181 12.2344 80.6976C13.1787 77.3633 15.2191 74.3492 17.9639 72.2338C17.444 70.7692 16.9241 69.3045 16.4042 67.8399C9.62879 72.1676 4.87393 79.5286 3.71494 87.4843C3.54769 88.6323 3.4724 89.8858 4.08621 90.8703ZM23.3509 80.8189C23.3989 80.6678 23.311 80.5104 23.2265 80.3762C22.3513 78.9855 21.476 77.5948 20.6008 76.2041C20.2048 75.5749 19.4388 74.8623 18.845 75.3095C16.7054 76.9208 15.1738 79.3207 14.6134 81.94C14.5029 82.4568 14.4387 83.0337 14.7201 83.4811C15.2436 84.3135 16.4946 84.1282 17.4203 83.7965C19.3937 83.0894 21.2945 82.1801 23.0835 81.0876C23.1938 81.0202 23.3118 80.9421 23.3509 80.8189ZM99.4921 14.6187C99.4043 14.2575 98.974 14.1005 98.6026 14.0843C97.4749 14.0352 96.2965 14.9623 96.3679 16.0888C96.4392 17.2154 98.1138 17.9248 98.8135 17.039C99.0247 16.7715 99.1141 16.4306 99.1982 16.1004C99.2816 15.7732 99.365 15.446 99.4484 15.1189C99.4901 14.955 99.5321 14.7831 99.4921 14.6187Z" fill="#80E3F1"/>
</svg>
