<svg width="60" height="56" viewBox="0 0 60 56" fill="none" xmlns="http://www.w3.org/2000/svg">
<path fill-rule="evenodd" clip-rule="evenodd" d="M30.2785 55.1027C23.6379 55.8152 16.6043 54.2789 11.4194 50.0692C7.74731 47.0877 5.16708 42.9402 3.35654 38.5703C1.39083 33.826 0.260673 28.7369 0.033472 23.6065C-0.0520636 21.675 -0.00611871 19.7077 0.561482 17.8596C1.49564 14.8178 3.74532 12.3768 6.04181 10.1743C10.9275 5.48868 16.6702 1.2132 23.3675 0.228009C27.9312 -0.443315 32.5735 0.471692 37.0408 1.62143C40.5492 2.52441 44.0532 3.58881 47.209 5.36807C54.1822 9.29965 59.0145 16.7986 59.7135 24.7733C60.4125 32.7479 59.5525 38.032 48.7906 47.9398C43.1984 51.5911 36.9191 54.3903 30.2785 55.1027ZM41.9891 30.0703C40.9121 30.4087 39.8386 31.0102 38.7267 30.8145C36.4551 30.4146 36.0486 27.2983 36.553 25.0476C37.9969 18.6051 42.4878 12.9152 48.4186 10.0142C47.076 7.57893 43.5095 7.39993 40.987 8.57044C38.4646 9.74094 36.4927 11.8501 34.0533 13.1851C32.8393 13.8495 31.4007 14.3198 30.08 13.9062C27.907 13.2256 27.0775 10.3793 27.7889 8.21618C28.5003 6.05305 30.2758 4.43892 31.9807 2.92936C25.803 3.14582 19.6902 4.99988 14.4332 8.25161C10.3177 10.7972 6.41403 14.971 6.96007 19.7793C10.3628 17.0404 14.3579 15.0413 18.59 13.9599C19.4877 13.7305 20.6143 13.6152 21.176 14.3521C21.6015 14.9102 21.4794 15.7128 21.2067 16.3595C19.854 19.5678 15.8759 20.6439 13.4085 23.1004C13.0845 23.423 12.7738 23.7954 12.6953 24.2458C12.5416 25.1285 13.3829 25.9334 14.2666 26.0808C15.1504 26.2282 16.0376 25.9065 16.8758 25.5902C18.6168 24.9334 20.3578 24.2766 22.0988 23.6198C23.3591 23.1443 24.8554 22.6903 25.9762 23.4375C27.1357 24.2106 27.245 25.9687 26.5897 27.1985C25.9344 28.4284 24.7315 29.2532 23.5739 30.029C20.7837 31.8991 17.9936 33.7691 15.2034 35.6392C12.8673 37.2049 10.2501 39.3158 10.4721 42.1193C10.6811 44.7581 13.5842 46.5515 16.2259 46.382C18.8676 46.2125 21.1924 44.5971 23.1421 42.8066C25.0918 41.0161 26.8516 38.9716 29.1158 37.6C30.5932 36.705 32.7013 36.2081 33.9015 37.4504C34.8287 38.4102 34.7393 39.9533 34.3913 41.2417C33.3883 44.955 30.6764 48.1694 27.185 49.7833C30.0257 50.4386 32.988 50.5623 35.8734 50.146C37.5191 49.9085 39.2226 49.4521 40.4126 48.2909C41.6026 47.1297 42.0634 45.0863 41.0311 43.7828C39.4914 41.8386 39.5526 38.9939 40.5364 36.7173C41.5201 34.4406 43.2772 32.6024 44.9985 30.8169C44.5058 29.8011 43.0662 29.7319 41.9891 30.0703ZM55.1403 34.4833C56.6873 30.9077 56.7436 26.8639 56.3519 22.9878C55.9186 18.7009 54.4241 13.7991 50.3857 12.297C44.4678 14.7534 39.9008 20.2333 38.5514 26.4971C38.438 27.0234 38.3493 27.5894 38.5564 28.0864C38.7634 28.5834 39.3788 28.9458 39.8557 28.696C41.4919 27.8387 43.5041 27.3523 45.1675 28.1556C46.8308 28.9589 47.6409 31.466 46.294 32.7301C44.8059 34.1267 43.2775 35.5796 42.4746 37.4559C41.6718 39.3321 41.7875 41.7612 43.2991 43.1324C44.4349 44.1628 44.4378 46.1861 43.305 47.2198C46.526 46.2788 48.8211 43.5095 50.9099 40.8832C52.5066 38.8756 54.1218 36.8376 55.1403 34.4833ZM18.0599 15.9924C14.7093 17.3821 11.4569 19.0086 8.33509 20.8558C7.59269 21.2951 6.84235 21.76 6.29951 22.4304C5.56649 23.3357 5.28796 24.5172 5.06145 25.6598C4.32965 29.3513 3.95233 33.3256 5.50259 36.7548C5.99742 37.8493 6.67378 38.8504 7.34673 39.8455C7.54535 40.1392 7.77087 40.4531 8.11135 40.552C8.45183 40.6508 8.90151 40.3763 8.82153 40.0309C8.57505 38.9665 9.38126 37.965 10.1768 37.2162C14.8364 32.8301 21.1138 30.3125 25.3041 25.476C24.6684 24.7229 23.4627 25.077 22.5563 25.4639C20.3977 26.3855 18.1718 27.1497 15.9023 27.7485C14.7316 28.0574 13.4269 28.3085 12.3585 27.7389C10.7947 26.9053 10.5402 24.6245 11.3662 23.0566C12.1921 21.4888 13.7623 20.4769 15.2767 19.5565C16.791 18.6361 18.3797 17.6754 19.2883 16.154C19.123 15.721 18.4881 15.8149 18.0599 15.9924ZM29.5272 45.3738C31.008 44.1841 32.6078 42.781 32.7693 40.8884C32.8538 39.8987 32.219 38.6885 31.2303 38.7829C30.9264 38.8119 30.6489 38.9625 30.3869 39.119C26.0809 41.6913 23.2471 46.7213 18.3897 47.9717C19.7623 48.5861 21.1935 49.0695 22.6576 49.4132C23.0935 49.5156 23.5475 49.6058 23.986 49.515C24.4962 49.4094 24.9231 49.073 25.3293 48.7467C26.7286 47.6224 28.1279 46.4981 29.5272 45.3738ZM33.5317 4.2527C32.5735 5.31242 31.6153 6.37215 30.6571 7.43187C29.8982 8.27129 29.0839 9.37892 29.5064 10.4288C29.8177 11.2022 30.7368 11.5931 31.568 11.5286C32.3992 11.4641 33.1563 11.0389 33.8533 10.5815C36.3373 8.95166 38.5739 6.73165 41.4726 6.08041C39.4627 5.34797 37.4528 4.61553 35.4429 3.88308C35.0244 3.73056 34.5577 3.5782 34.1459 3.74805C33.8988 3.84998 33.7109 4.05441 33.5317 4.2527Z" fill="#80E3F1"/>
</svg>
