<svg width="24" height="25" viewBox="0 0 24 25" fill="none" xmlns="http://www.w3.org/2000/svg">
<path d="M7.55016 22.4951C16.6045 22.4951 21.5583 14.9918 21.5583 8.48698C21.5583 8.27604 21.5536 8.06042 21.5442 7.84948C22.5079 7.15258 23.3395 6.28937 24 5.30042C23.1025 5.69972 22.1496 5.9605 21.1739 6.07385C22.2013 5.45803 22.9705 4.49059 23.3391 3.35088C22.3726 3.92367 21.3156 4.32773 20.2134 4.54573C19.4708 3.75668 18.489 3.23423 17.4197 3.05917C16.3504 2.8841 15.2532 3.06617 14.2977 3.57721C13.3423 4.08826 12.5818 4.89982 12.1338 5.88643C11.6859 6.87303 11.5754 7.97973 11.8195 9.03542C9.86249 8.93721 7.94794 8.42882 6.19998 7.54322C4.45203 6.65761 2.90969 5.41455 1.67297 3.89463C1.0444 4.97836 0.852057 6.26076 1.13503 7.48121C1.418 8.70165 2.15506 9.76856 3.19641 10.4651C2.41463 10.4403 1.64998 10.2298 0.965625 9.85104V9.91198C0.964925 11.0493 1.3581 12.1517 2.07831 13.0319C2.79852 13.9121 3.80132 14.5157 4.91625 14.7401C4.19206 14.9382 3.43198 14.9671 2.69484 14.8245C3.00945 15.8026 3.62157 16.658 4.44577 17.2715C5.26997 17.8849 6.26512 18.2257 7.29234 18.2464C5.54842 19.6162 3.39417 20.3592 1.17656 20.3557C0.783287 20.3551 0.390399 20.331 0 20.2835C2.25286 21.7289 4.87353 22.4965 7.55016 22.4951Z" fill="#7B869F"/>
</svg>
