<svg width="40" height="40" viewBox="0 0 40 40" fill="none" xmlns="http://www.w3.org/2000/svg">
<path d="M21.3087 3.47313C22.3234 3.04179 23.4017 2.7624 24.4987 2.64672C25.9153 2.57516 27.3642 2.58888 28.7248 3.03591C32.9873 4.20739 36.3154 8.20806 36.6252 12.6263C29.2964 12.6401 21.9665 12.6381 14.6377 12.6273C14.9308 8.65312 17.6394 4.9985 21.3087 3.47313Z" fill="#F3BD09"/>
<path d="M5.61827 5.94819C7.68478 3.76209 10.712 2.50434 13.7206 2.61904C15.2871 2.6308 16.8537 2.59551 18.4192 2.63865C17.4821 3.40231 16.4763 4.10912 15.7204 5.06885C12.9207 8.2588 11.8031 12.8633 12.9363 16.964C13.7382 20.1147 15.7734 22.9292 18.5075 24.6889C17.932 24.8046 17.3429 24.7438 16.7606 24.7575C15.3852 24.7438 14.0088 24.7977 12.6354 24.7026C10.1836 24.4928 7.79654 23.4596 6.00648 21.7636C4.42033 20.2843 3.26453 18.3423 2.77143 16.2268C2.4744 15.1034 2.45577 13.9348 2.50577 12.781C2.69791 10.2341 3.80469 7.75492 5.61827 5.94819Z" fill="#F3BD09"/>
<path d="M20.7266 14.7198C22.0176 14.6815 23.3107 14.7129 24.6027 14.7031C25.387 14.7149 26.1752 14.6619 26.9555 14.7707C29.0034 15.0227 30.9738 15.8589 32.5796 17.1558C33.9128 18.2558 35.0157 19.6527 35.7176 21.2359C37.0224 24.0906 37.0126 27.5031 35.696 30.3529C34.9745 31.9616 33.8344 33.3664 32.4659 34.4712C30.6287 35.924 28.3162 36.77 25.9752 36.8347C24.2351 36.823 22.4941 36.8553 20.754 36.8171C20.8609 36.7073 20.9667 36.5955 21.0903 36.5044C24.2567 34.3104 26.3536 30.6411 26.6212 26.7963C26.6398 25.8179 26.6918 24.8288 26.531 23.8583C26.0477 20.6183 24.3204 17.5715 21.752 15.5315C21.4157 15.253 21.0354 15.0295 20.7266 14.7198Z" fill="#F3BD09"/>
<path d="M2.57463 26.7695C9.89857 26.7803 17.2225 26.7646 24.5474 26.7774C24.4161 28.4831 23.8387 30.1467 22.9495 31.6044C21.9624 33.1681 20.5948 34.4934 18.99 35.4159C17.0245 36.5227 14.7139 37.0158 12.469 36.7854C9.57115 36.5296 6.8145 35.0493 4.98621 32.7887C3.72944 31.2888 2.91088 29.4399 2.60208 27.5107C2.56875 27.2646 2.56679 27.0166 2.57463 26.7695Z" fill="#F3BD09"/>
</svg>
